<svg width="20" height="20" viewBox="0 0 20 20" fill="none" xmlns="http://www.w3.org/2000/svg">
<g clip-path="url(#clip0)">
<path d="M16.075 1.88746L18.1117 3.92413L12.0367 9.99996H10V7.9633L16.075 1.88746ZM17.8142 0.149131L16.7958 1.16746L18.8325 3.20413L19.8508 2.1858C20.05 1.98663 20.05 1.66413 19.8508 1.4658L18.5342 0.149131C18.335 -0.0500358 18.0125 -0.0500358 17.8142 0.149131Z" fill="#109CF1"/>
<path d="M15.8333 8.33333L15.8325 15.8333H4.16667V5.83333H9.77333L13.1067 2.5H4.16667C3.24583 2.5 2.5 3.24583 2.5 4.16667V15.8333C2.5 16.7542 3.24583 17.5 4.16667 17.5H15.8333C16.7542 17.5 17.5 16.7542 17.5 15.8333V8.33333C17.5 7.87333 17.1267 7.5 16.6667 7.5C16.2058 7.5 15.8333 7.87333 15.8333 8.33333Z" fill="#109CF1"/>
</g>
<defs>
<clipPath id="clip0">
<rect width="20" height="20" fill="white"/>
</clipPath>
</defs>
</svg>
