<svg width="75" height="90" viewBox="0 0 75 90" fill="none" xmlns="http://www.w3.org/2000/svg">
<path d="M74.4044 11.6905C74.4044 12.8852 74.3475 14.0656 74.2338 15.2319C73.992 17.6639 73.5084 20.0106 72.8115 22.272C72.4702 23.3387 72.1004 24.3912 71.6595 25.4294C71.5457 25.7139 71.4177 25.9983 71.2897 26.2828C70.6354 27.7335 69.8817 29.1415 69.0567 30.4784C69.0567 30.4784 69.0567 30.4926 69.0425 30.4926C68.5163 31.3887 67.606 32.8536 66.3118 34.5603C65.2024 36.0252 64.0789 37.3195 62.1161 39.2111C61.7606 39.5524 61.3908 39.908 60.9783 40.292C59.6841 41.5151 58.0627 42.98 55.972 44.8432C51.5346 48.797 52.0039 48.2424 51.3212 48.9393C49.7852 50.4895 48.5052 52.1251 47.41 53.8176C46.0589 55.8941 45.0207 58.0275 44.21 60.1182C44.1958 60.1608 44.1815 60.2035 44.1531 60.2604C44.0109 60.616 43.4989 60.5591 43.442 60.1893V60.1751C43.2997 59.279 43.2144 58.3546 43.2144 57.4159C43.2144 56.5057 43.2855 55.6239 43.4135 54.7563C43.9113 51.5562 45.2909 48.6548 47.3105 46.2939C48.107 45.3694 48.9888 44.5161 49.9701 43.7765C49.9701 43.7765 49.9701 43.7765 49.9843 43.7765C53.0706 40.9035 55.7018 38.2297 57.8636 35.8972C58.9445 34.731 59.9117 33.65 60.765 32.6829C62.2442 30.9904 63.5242 29.5255 64.7758 27.9468C65.6291 26.8801 66.4682 25.7565 67.35 24.4765C68.431 22.8978 69.3981 21.3618 70.2514 19.8969C71.1617 18.3039 71.9581 16.7963 72.6266 15.3883C72.9537 14.7199 73.2524 14.0656 73.5226 13.4398C73.8355 12.7145 74.12 12.0318 74.376 11.3918C74.4044 11.4771 74.4044 11.5909 74.4044 11.6905Z" fill="#0DF1B2"/>
<path d="M56.0151 59.1658C60.0543 57.2315 63.6668 54.5577 66.682 51.3149C66.682 51.4571 66.6678 51.5994 66.6678 51.7416C66.4971 55.027 65.3024 58.1702 63.3397 60.8014C62.8135 61.5125 62.2019 62.3089 61.761 62.8778C60.225 64.8263 58.5467 66.8317 56.6694 68.8797C55.3893 70.2736 54.1235 71.582 52.8862 72.8194C51.4639 74.2274 50.0701 75.5217 48.719 76.7164C46.6709 74.1136 45.3624 70.8993 45.1064 67.4006C45.078 66.9882 45.0638 66.5615 45.0638 66.1348C45.0638 65.8077 45.078 65.4806 45.0922 65.1534C45.1491 64.1863 45.2771 63.2476 45.4904 62.3374C45.6753 61.4983 45.9313 60.6733 46.2442 59.8911C46.9554 58.0564 47.9794 56.3924 49.2452 54.9274C49.2452 54.9274 49.2452 54.9132 49.2594 54.9132C49.871 54.1879 50.639 53.3061 51.5777 52.2963C52.559 51.2438 53.7253 50.0776 55.0622 48.8402C58.7601 45.4268 60.9788 44.1468 63.9655 41.544C64.2215 41.3165 64.4918 41.0889 64.762 40.8329C64.9327 40.6765 65.1033 40.52 65.274 40.3636C66.1273 39.5671 67.1229 38.5715 68.2323 37.3484C69.3843 36.0684 70.6359 34.5608 71.9159 32.783C71.5888 36.3101 70.6643 39.6524 69.2421 42.7245C68.4456 44.4312 67.5069 46.0526 66.4118 47.5602C65.9993 48.1291 65.5727 48.698 65.1175 49.2384C65.0607 49.3095 65.0038 49.3664 64.9611 49.4233C64.9469 49.4375 64.9327 49.466 64.9042 49.4802C63.5246 51.1869 62.017 52.9505 60.353 54.7425C58.8738 56.3497 57.4232 57.8146 56.0151 59.1658Z" fill="#0DF1B2"/>
<path d="M0.1348 11.6908C0.1348 12.8855 0.19169 14.066 0.30547 15.2322C0.547253 17.6643 1.03082 20.011 1.72772 22.2724C2.06906 23.3391 2.43885 24.3915 2.87975 25.4298C2.99353 25.7142 3.12153 25.9987 3.24954 26.2831C3.90377 27.7338 4.65757 29.1419 5.48247 30.4788C5.48247 30.4788 5.48247 30.493 5.4967 30.493C6.02293 31.389 6.93317 32.8539 8.22742 34.5607C9.33678 36.0256 10.4604 37.3198 12.4231 39.2114C12.7786 39.5528 13.1484 39.9083 13.5609 40.2923C14.8551 41.5155 16.4765 42.9804 18.5672 44.8435C23.0046 48.7974 22.5353 48.2427 23.218 48.9396C24.754 50.4899 26.034 52.1255 27.1292 53.818C28.4803 55.8944 29.5186 58.0278 30.3292 60.1185C30.3435 60.1612 30.3577 60.2039 30.3861 60.2608C30.5284 60.6163 31.0404 60.5594 31.0973 60.1897V60.1754C31.2395 59.2794 31.3248 58.3549 31.3248 57.4163C31.3248 56.506 31.2537 55.6242 31.1257 54.7566C30.6279 51.5566 29.2483 48.6552 27.2287 46.2942C26.4323 45.3698 25.5505 44.5164 24.5691 43.7769C24.5691 43.7769 24.5691 43.7769 24.5549 43.7769C21.4686 40.9039 18.8374 38.2301 16.6756 35.8976C15.5947 34.7313 14.6276 33.6504 13.7742 32.6833C12.2951 30.9908 11.015 29.5259 9.76346 27.9472C8.9101 26.8805 8.07097 25.7569 7.18918 24.4769C6.07982 22.8982 5.11269 21.3621 4.27356 19.883C3.36332 18.2901 2.56685 16.7825 1.89839 15.3745C1.57128 14.706 1.2726 14.0518 1.00237 13.426C0.675256 12.7006 0.390806 12.0179 0.1348 11.3779C0.1348 11.4775 0.1348 11.5913 0.1348 11.6908Z" fill="#16AAFE"/>
<path d="M18.5237 59.1658C14.4845 57.2315 10.8719 54.5577 7.85676 51.3149C7.85676 51.4571 7.87099 51.5994 7.87099 51.7416C8.04166 55.027 9.23635 58.1702 11.1991 60.8014C11.7253 61.5125 12.3369 62.3089 12.7778 62.8778C14.3138 64.8263 15.9921 66.8317 17.8694 68.8797C19.1495 70.2736 20.4153 71.582 21.6526 72.8194C23.0749 74.2274 24.4687 75.5217 25.8198 76.7164C27.8679 74.1136 29.1763 70.8993 29.4323 67.4006C29.4608 66.9882 29.475 66.5615 29.475 66.1348C29.475 65.8077 29.4608 65.4806 29.4466 65.1534C29.3897 64.1863 29.2617 63.2476 29.0483 62.3374C28.8634 61.4983 28.6074 60.6733 28.2945 59.8911C27.5834 58.0564 26.5594 56.3924 25.2936 54.9274C25.2936 54.9274 25.2936 54.9132 25.2794 54.9132C24.6678 54.1879 23.8998 53.3061 22.9611 52.2963C21.9797 51.2438 20.8135 50.0776 19.4766 48.8402C15.7787 45.4268 13.56 44.1468 10.5733 41.544C10.3173 41.3165 10.047 41.0889 9.77681 40.8329C9.60613 40.6765 9.43546 40.52 9.26479 40.3636C8.41144 39.5671 7.41586 38.5715 6.30651 37.3484C5.15448 36.0684 3.9029 34.5608 2.62287 32.783C2.94999 36.3101 3.87445 39.6524 5.29671 42.7245C6.09317 44.4312 7.03186 46.0526 8.12699 47.5602C8.53944 48.1291 8.96612 48.698 9.42124 49.2384C9.47813 49.3095 9.53502 49.3664 9.57769 49.4233C9.59191 49.4375 9.60613 49.466 9.63458 49.4802C11.0142 51.1869 12.5218 52.9505 14.1858 54.7425C15.6792 56.3497 17.1156 57.8146 18.5237 59.1658Z" fill="#16AAFE"/>
<path d="M41.4643 65.9497C41.3362 64.8687 41.2367 63.7736 41.2082 62.6643C41.194 62.266 41.194 61.882 41.194 61.4838C41.194 61.0571 41.194 60.6304 41.2225 60.2038C41.2225 60.1895 41.2225 60.1611 41.2225 60.1469C41.2367 59.962 41.2367 59.7771 41.2509 59.578C41.2651 59.194 41.2651 58.8099 41.2651 58.4402C41.2651 57.3024 41.2082 56.1788 41.0802 55.0836C40.7816 52.3671 40.1273 49.7644 39.1602 47.3181C38.9184 46.7208 38.634 45.8105 38.4633 44.6159C38.1788 42.6247 38.0366 41.6291 38.4348 41.0176C39.1175 39.9366 40.4687 40.3349 42.0758 39.5526C43.171 39.0122 44.5505 37.8602 45.5603 35.1294C43.8821 37.4477 42.4598 37.9739 41.4643 38.0024C40.8953 38.0308 40.7816 37.8744 39.1886 37.7037C37.3966 37.5046 36.5006 37.405 35.7041 37.6468C35.2206 37.789 33.9832 38.2868 32.9592 40.1926C32.6605 40.2922 32.2196 40.4629 31.7645 40.8184C31.0249 41.4016 30.6978 42.1269 30.584 42.4683C30.968 42.2834 31.5796 42.0416 32.3476 41.8851C33.4001 41.6576 34.1396 41.5153 34.7512 41.8851C35.7041 42.454 35.7752 43.9047 35.8321 44.7581C35.9032 46.0381 35.4766 47.1332 35.4055 47.3181C35.4055 47.3181 35.4055 47.3181 35.4055 47.3324C34.4383 49.7786 33.7841 52.3814 33.4854 55.0979C33.3574 56.2072 33.3005 57.3166 33.3005 58.4544C33.3005 58.8384 33.3005 59.2224 33.3147 59.5922C33.3147 59.7771 33.329 59.9762 33.3432 60.1611C33.3432 60.1753 33.3432 60.2038 33.3432 60.218C33.3574 60.6447 33.3716 61.0713 33.3716 61.498C33.3716 61.8962 33.3716 62.2802 33.3574 62.6785C33.3147 63.7878 33.2294 64.883 33.1014 65.9639C32.4756 71.0271 30.7689 75.7632 28.2515 79.9304C29.5458 81.694 32.0632 81.9785 33.7272 80.542C33.8694 80.414 34.0116 80.3002 34.1681 80.1722C34.5379 83.7136 35.633 87.0417 37.3113 90C38.9895 87.0417 40.0847 83.7136 40.4545 80.1722C40.5967 80.286 40.7531 80.414 40.8953 80.542C42.5594 81.9642 45.0768 81.694 46.371 79.9304C43.7967 75.749 42.09 71.0129 41.4643 65.9497Z" fill="#12306D"/>
<path fill-rule="evenodd" clip-rule="evenodd" d="M45.2349 7.97884V3.3423H40.6125L37.256 0L33.9422 3.3423H29.263V8.04995L25.9776 11.3496L29.263 14.635V19.428H33.9848L37.256 22.7561L40.5557 19.4422H45.2349V14.7203L48.5629 11.3638L45.2349 7.97884ZM44.3388 14.379V18.5746H40.2001L37.2703 21.5329L34.3546 18.5746H30.1448V14.3221L27.2291 11.3923L30.1448 8.44819V4.23832H34.312L37.2703 1.25158L40.257 4.23832H44.3531V8.3913L47.2971 11.4065L44.3388 14.379Z" fill="#12306D"/>
<path fill-rule="evenodd" clip-rule="evenodd" d="M40.6841 6.30116C40.3143 6.23004 39.9445 6.18737 39.5605 6.18737C36.6591 6.18737 34.3124 8.53409 34.3124 11.4355C34.3124 14.3369 36.6591 16.6836 39.5605 16.6836C39.8876 16.6836 40.2147 16.6409 40.5276 16.5698C39.5605 17.2098 38.4227 17.5512 37.2707 17.5512C33.8715 17.2952 31.3257 14.3369 31.5674 10.9377C31.795 7.89408 34.2128 5.46203 37.2707 5.24869C38.4938 5.24869 39.6743 5.61847 40.6841 6.30116Z" fill="#12306D"/>
<path fill-rule="evenodd" clip-rule="evenodd" d="M38.4661 9.92759L39.5186 8.23511L40.571 9.92759L42.4769 10.4112L41.1684 11.9614L41.3248 13.9241L39.5186 13.1703L37.6839 13.9241L37.8403 11.9614L36.5745 10.4112L38.4661 9.92759Z" fill="#12306D"/>
</svg>
