<svg width="110" height="32" viewBox="0 0 110 32" fill="none" xmlns="http://www.w3.org/2000/svg">
<path d="M26.4072 4.15656C26.4072 4.58134 26.387 5.00107 26.3465 5.41573C26.2605 6.28047 26.0886 7.11486 25.8408 7.9189C25.7194 8.29817 25.588 8.67238 25.4312 9.04154C25.3907 9.14267 25.3452 9.24381 25.2997 9.34495C25.0671 9.86075 24.7991 10.3614 24.5058 10.8367C24.5058 10.8367 24.5058 10.8418 24.5007 10.8418C24.3136 11.1604 23.99 11.6812 23.5298 12.2881C23.1354 12.8089 22.7359 13.2691 22.038 13.9417C21.9116 14.063 21.7801 14.1895 21.6335 14.326C21.1733 14.7609 20.5968 15.2818 19.8534 15.9442C18.2757 17.35 18.4426 17.1528 18.1998 17.4006C17.6537 17.9518 17.1986 18.5333 16.8092 19.1351C16.3288 19.8734 15.9596 20.632 15.6714 21.3753C15.6663 21.3905 15.6613 21.4057 15.6511 21.4259C15.6006 21.5523 15.4185 21.5321 15.3983 21.4006V21.3956C15.3477 21.077 15.3174 20.7483 15.3174 20.4145C15.3174 20.0909 15.3427 19.7773 15.3882 19.4689C15.5652 18.3311 16.0557 17.2995 16.7738 16.46C17.057 16.1313 17.3705 15.8279 17.7194 15.5649C17.7194 15.5649 17.7194 15.5649 17.7245 15.5649C18.8218 14.5434 19.7573 13.5928 20.526 12.7634C20.9103 12.3488 21.2542 11.9644 21.5576 11.6206C22.0835 11.0188 22.5386 10.4979 22.9837 9.93661C23.2871 9.55734 23.5854 9.15785 23.899 8.70272C24.2833 8.14141 24.6272 7.59526 24.9306 7.0744C25.2542 6.50803 25.5374 5.97199 25.7751 5.47136C25.8914 5.23369 25.9976 5.00107 26.0937 4.77856C26.2049 4.52066 26.306 4.27793 26.3971 4.05037C26.4072 4.08071 26.4072 4.12117 26.4072 4.15656Z" fill="#12306D"/>
<path d="M19.8689 21.0367C21.3051 20.349 22.5895 19.3983 23.6616 18.2453C23.6616 18.2958 23.6565 18.3464 23.6565 18.397C23.5959 19.5651 23.1711 20.6827 22.4732 21.6182C22.2861 21.8711 22.0687 22.1543 21.9119 22.3565C21.3658 23.0493 20.769 23.7624 20.1015 24.4906C19.6464 24.9861 19.1963 25.4514 18.7564 25.8913C18.2507 26.392 17.7551 26.8521 17.2747 27.2769C16.5465 26.3515 16.0813 25.2086 15.9903 23.9646C15.9802 23.818 15.9751 23.6663 15.9751 23.5146C15.9751 23.3983 15.9802 23.282 15.9852 23.1657C16.0054 22.8218 16.051 22.488 16.1268 22.1644C16.1925 21.866 16.2836 21.5727 16.3948 21.2946C16.6477 20.6423 17.0118 20.0506 17.4618 19.5297C17.4618 19.5297 17.4618 19.5247 17.4669 19.5247C17.6843 19.2668 17.9574 18.9532 18.2912 18.5942C18.6401 18.22 19.0548 17.8053 19.5301 17.3654C20.8449 16.1517 21.6338 15.6966 22.6957 14.7712C22.7868 14.6903 22.8828 14.6094 22.9789 14.5183C23.0396 14.4627 23.1003 14.4071 23.161 14.3515C23.4644 14.0683 23.8184 13.7143 24.2128 13.2794C24.6224 12.8243 25.0674 12.2882 25.5225 11.6561C25.4062 12.9102 25.0775 14.0986 24.5718 15.1909C24.2887 15.7977 23.9549 16.3742 23.5655 16.9103C23.4189 17.1125 23.2672 17.3148 23.1053 17.507C23.0851 17.5323 23.0649 17.5525 23.0497 17.5727C23.0447 17.5778 23.0396 17.5879 23.0295 17.5929C22.539 18.1998 22.0029 18.8268 21.4113 19.464C20.8854 20.0354 20.3696 20.5563 19.8689 21.0367Z" fill="#12306D"/>
<path d="M0 4.15671C0 4.58149 0.0202276 5.00121 0.0606829 5.41588C0.14665 6.28061 0.318585 7.115 0.566374 7.91905C0.687739 8.29831 0.819219 8.67253 0.975983 9.04168C1.01644 9.14282 1.06195 9.24396 1.10746 9.34509C1.34008 9.8609 1.6081 10.3615 1.9014 10.8369C1.9014 10.8369 1.9014 10.8419 1.90645 10.8419C2.09356 11.1605 2.4172 11.6814 2.87738 12.2882C3.27182 12.8091 3.67131 13.2693 4.36917 13.9418C4.49559 14.0632 4.62707 14.1896 4.77372 14.3261C5.2339 14.761 5.81039 15.2819 6.55375 15.9444C8.13151 17.3502 7.96463 17.153 8.20736 17.4007C8.75351 17.9519 9.20863 18.5335 9.59801 19.1353C10.0784 19.8736 10.4476 20.6321 10.7358 21.3755C10.7409 21.3906 10.7459 21.4058 10.756 21.426C10.8066 21.5525 10.9887 21.5322 11.0089 21.4008V21.3957C11.0595 21.0771 11.0898 20.7484 11.0898 20.4147C11.0898 20.091 11.0645 19.7775 11.019 19.469C10.842 18.3312 10.3515 17.2996 9.63341 16.4602C9.35022 16.1315 9.03669 15.828 8.68777 15.5651C8.68777 15.5651 8.68777 15.5651 8.68271 15.5651C7.58536 14.5436 6.64983 13.5929 5.88118 12.7636C5.49686 12.3489 5.15299 11.9646 4.84957 11.6207C4.32366 11.0189 3.86853 10.4981 3.42353 9.93675C3.12011 9.55748 2.82175 9.15799 2.50823 8.70287C2.11379 8.14155 1.76992 7.5954 1.47156 7.06949C1.14792 6.50311 0.864731 5.96708 0.627057 5.46645C0.510748 5.22877 0.404553 4.99615 0.308471 4.77365C0.192162 4.51575 0.0910243 4.27302 0 4.04546C0 4.08085 0 4.12131 0 4.15671Z" fill="#12306D"/>
<path d="M6.53839 21.0367C5.10223 20.349 3.81777 19.3983 2.74571 18.2453C2.74571 18.2958 2.75076 18.3464 2.75076 18.397C2.81145 19.5651 3.23623 20.6827 3.93408 21.6182C4.12119 21.8711 4.33863 22.1543 4.4954 22.3565C5.04154 23.0493 5.63826 23.7624 6.30577 24.4906C6.76089 24.9861 7.21096 25.4514 7.65091 25.8913C8.1566 26.392 8.65218 26.8521 9.13258 27.2769C9.86078 26.3515 10.326 25.2086 10.417 23.9646C10.4272 23.818 10.4322 23.6663 10.4322 23.5146C10.4322 23.3983 10.4272 23.282 10.4221 23.1657C10.4019 22.8218 10.3564 22.488 10.2805 22.1644C10.2148 21.866 10.1237 21.5727 10.0125 21.2946C9.75964 20.6423 9.39554 20.0506 8.94548 19.5297C8.94548 19.5297 8.94548 19.5247 8.94042 19.5247C8.72297 19.2668 8.4499 18.9532 8.11614 18.5942C7.76722 18.22 7.35255 17.8053 6.8772 17.3654C5.56241 16.1517 4.77353 15.6966 3.71158 14.7712C3.62055 14.6903 3.52447 14.6094 3.42839 14.5183C3.36771 14.4627 3.30702 14.4071 3.24634 14.3515C2.94293 14.0683 2.58894 13.7143 2.1945 13.2794C1.7849 12.8243 1.33989 12.2882 0.884766 11.6561C1.00107 12.9102 1.32977 14.0986 1.83546 15.1909C2.11865 15.7977 2.45241 16.3742 2.84179 16.9103C2.98844 17.1125 3.14015 17.3148 3.30197 17.507C3.3222 17.5323 3.34242 17.5525 3.35759 17.5727C3.36265 17.5778 3.36771 17.5879 3.37782 17.5929C3.86834 18.1998 4.40437 18.8268 4.99603 19.464C5.52701 20.0354 6.03776 20.5563 6.53839 21.0367Z" fill="#12306D"/>
<path d="M14.6949 23.4488C14.6494 23.0644 14.614 22.675 14.6039 22.2806C14.5989 22.139 14.5989 22.0025 14.5989 21.8609C14.5989 21.7092 14.5989 21.5575 14.609 21.4058C14.609 21.4007 14.609 21.3906 14.609 21.3855C14.614 21.3198 14.614 21.2541 14.6191 21.1833C14.6241 21.0467 14.6241 20.9102 14.6241 20.7787C14.6241 20.3742 14.6039 19.9747 14.5584 19.5853C14.4522 18.6194 14.2196 17.694 13.8757 16.8242C13.7898 16.6118 13.6886 16.2882 13.6279 15.8634C13.5268 15.1554 13.4762 14.8014 13.6178 14.584C13.8605 14.1997 14.341 14.3413 14.9124 14.0631C15.3018 13.871 15.7923 13.4614 16.1513 12.4904C15.5546 13.3147 15.0489 13.5018 14.6949 13.5119C14.4927 13.522 14.4522 13.4664 13.8858 13.4057C13.2487 13.3349 12.9301 13.2995 12.6469 13.3855C12.475 13.4361 12.035 13.6131 11.6709 14.2907C11.5647 14.3261 11.4079 14.3868 11.2461 14.5132C10.9832 14.7205 10.8669 14.9784 10.8264 15.0998C10.9629 15.0341 11.1804 14.9481 11.4535 14.8925C11.8277 14.8116 12.0906 14.761 12.3081 14.8925C12.6469 15.0947 12.6722 15.6105 12.6924 15.914C12.7177 16.3691 12.566 16.7585 12.5407 16.8242C12.5407 16.8242 12.5407 16.8242 12.5407 16.8293C12.1968 17.699 11.9642 18.6245 11.858 19.5903C11.8125 19.9848 11.7923 20.3792 11.7923 20.7838C11.7923 20.9203 11.7923 21.0568 11.7973 21.1883C11.7973 21.2541 11.8024 21.3249 11.8074 21.3906C11.8074 21.3956 11.8074 21.4058 11.8074 21.4108C11.8125 21.5625 11.8176 21.7142 11.8176 21.8659C11.8176 22.0075 11.8176 22.1441 11.8125 22.2857C11.7973 22.6801 11.767 23.0695 11.7215 23.4538C11.499 25.2541 10.8921 26.938 9.99707 28.4197C10.4572 29.0467 11.3523 29.1479 11.944 28.6371C11.9945 28.5916 12.0451 28.5512 12.1007 28.5057C12.2322 29.7648 12.6216 30.9481 13.2183 32C13.815 30.9481 14.2044 29.7648 14.3359 28.5057C14.3865 28.5461 14.4421 28.5916 14.4927 28.6371C15.0843 29.1428 15.9794 29.0467 16.4396 28.4197C15.5243 26.933 14.9174 25.249 14.6949 23.4488Z" fill="#12306D"/>
<path fill-rule="evenodd" clip-rule="evenodd" d="M16.0355 2.83689V1.18834H14.392L13.1986 -3.05176e-05L12.0203 1.18834H10.3566V2.86218L9.18848 4.03538L10.3566 5.20353V6.90771H12.0355L13.1986 8.09102L14.3718 6.91276H16.0355V5.23387L17.2188 4.04044L16.0355 2.83689ZM15.7169 5.1125V6.60429H14.2454L13.2037 7.65613L12.167 6.60429H10.6702V5.09228L9.63348 4.05055L10.6702 3.00377V1.50693H12.1518L13.2037 0.444977L14.2656 1.50693H15.722V2.98355L16.7688 4.05561L15.7169 5.1125Z" fill="#12306D"/>
<path fill-rule="evenodd" clip-rule="evenodd" d="M14.4175 2.24038C14.2861 2.21509 14.1546 2.19992 14.018 2.19992C12.9864 2.19992 12.152 3.03431 12.152 4.06592C12.152 5.09753 12.9864 5.93192 14.018 5.93192C14.1344 5.93192 14.2507 5.91675 14.3619 5.89146C14.018 6.11903 13.6135 6.24039 13.2039 6.24039C11.9953 6.14937 11.0901 5.09753 11.1761 3.88893C11.257 2.80675 12.1166 1.94202 13.2039 1.86617C13.6388 1.86617 14.0585 1.99764 14.4175 2.24038Z" fill="#12306D"/>
<path fill-rule="evenodd" clip-rule="evenodd" d="M13.6286 3.52978L14.0028 2.92801L14.377 3.52978L15.0547 3.70172L14.5894 4.25292L14.6451 4.95077L14.0028 4.68276L13.3505 4.95077L13.4061 4.25292L12.9561 3.70172L13.6286 3.52978Z" fill="#12306D"/>
<path d="M49.94 13.48C49.94 14.2933 49.7533 15.04 49.38 15.72C49.0067 16.3867 48.4333 16.9267 47.66 17.34C46.8867 17.7533 45.9267 17.96 44.78 17.96H42.66V23H39.24V8.96H44.78C45.9 8.96 46.8467 9.15333 47.62 9.54C48.3933 9.92667 48.9733 10.46 49.36 11.14C49.7467 11.82 49.94 12.6 49.94 13.48ZM44.52 15.24C45.1733 15.24 45.66 15.0867 45.98 14.78C46.3 14.4733 46.46 14.04 46.46 13.48C46.46 12.92 46.3 12.4867 45.98 12.18C45.66 11.8733 45.1733 11.72 44.52 11.72H42.66V15.24H44.52ZM55.1405 13.7C55.5405 13.0867 56.0405 12.6067 56.6405 12.26C57.2405 11.9 57.9071 11.72 58.6405 11.72V15.34H57.7005C56.8471 15.34 56.2071 15.5267 55.7805 15.9C55.3538 16.26 55.1405 16.9 55.1405 17.82V23H51.7205V11.84H55.1405V13.7ZM65.3552 23.16C64.2618 23.16 63.2752 22.9267 62.3952 22.46C61.5285 21.9933 60.8418 21.3267 60.3352 20.46C59.8418 19.5933 59.5952 18.58 59.5952 17.42C59.5952 16.2733 59.8485 15.2667 60.3552 14.4C60.8618 13.52 61.5552 12.8467 62.4352 12.38C63.3152 11.9133 64.3018 11.68 65.3952 11.68C66.4885 11.68 67.4752 11.9133 68.3552 12.38C69.2352 12.8467 69.9285 13.52 70.4352 14.4C70.9418 15.2667 71.1952 16.2733 71.1952 17.42C71.1952 18.5667 70.9352 19.58 70.4152 20.46C69.9085 21.3267 69.2085 21.9933 68.3152 22.46C67.4352 22.9267 66.4485 23.16 65.3552 23.16ZM65.3552 20.2C66.0085 20.2 66.5618 19.96 67.0152 19.48C67.4818 19 67.7152 18.3133 67.7152 17.42C67.7152 16.5267 67.4885 15.84 67.0352 15.36C66.5952 14.88 66.0485 14.64 65.3952 14.64C64.7285 14.64 64.1752 14.88 63.7352 15.36C63.2952 15.8267 63.0752 16.5133 63.0752 17.42C63.0752 18.3133 63.2885 19 63.7152 19.48C64.1552 19.96 64.7018 20.2 65.3552 20.2Z" fill="#12306D"/>
<path d="M77.8495 23.14C76.9162 23.14 76.0762 22.98 75.3295 22.66C74.5829 22.3267 73.9962 21.86 73.5695 21.26C73.1429 20.66 72.9295 19.96 72.9295 19.16H75.3695C75.4229 19.76 75.6562 20.2533 76.0695 20.64C76.4962 21.0267 77.0895 21.22 77.8495 21.22C78.6362 21.22 79.2495 21.0333 79.6895 20.66C80.1295 20.2733 80.3495 19.78 80.3495 19.18C80.3495 18.7133 80.2095 18.3333 79.9295 18.04C79.6629 17.7467 79.3229 17.52 78.9095 17.36C78.5095 17.2 77.9495 17.0267 77.2295 16.84C76.3229 16.6 75.5829 16.36 75.0095 16.12C74.4495 15.8667 73.9695 15.48 73.5695 14.96C73.1695 14.44 72.9695 13.7467 72.9695 12.88C72.9695 12.08 73.1695 11.38 73.5695 10.78C73.9695 10.18 74.5295 9.72 75.2495 9.4C75.9695 9.08 76.8029 8.92 77.7495 8.92C79.0962 8.92 80.1962 9.26 81.0495 9.94C81.9162 10.6067 82.3962 11.5267 82.4895 12.7H79.9695C79.9295 12.1933 79.6895 11.76 79.2495 11.4C78.8095 11.04 78.2295 10.86 77.5095 10.86C76.8562 10.86 76.3229 11.0267 75.9095 11.36C75.4962 11.6933 75.2895 12.1733 75.2895 12.8C75.2895 13.2267 75.4162 13.58 75.6695 13.86C75.9362 14.1267 76.2695 14.34 76.6695 14.5C77.0695 14.66 77.6162 14.8333 78.3095 15.02C79.2295 15.2733 79.9762 15.5267 80.5495 15.78C81.1362 16.0333 81.6295 16.4267 82.0295 16.96C82.4429 17.48 82.6495 18.18 82.6495 19.06C82.6495 19.7667 82.4562 20.4333 82.0695 21.06C81.6962 21.6867 81.1429 22.1933 80.4095 22.58C79.6895 22.9533 78.8362 23.14 77.8495 23.14ZM95.3198 11.98V23H93.0398V21.7C92.6798 22.1533 92.2065 22.5133 91.6198 22.78C91.0465 23.0333 90.4332 23.16 89.7798 23.16C88.9132 23.16 88.1332 22.98 87.4398 22.62C86.7598 22.26 86.2198 21.7267 85.8198 21.02C85.4332 20.3133 85.2398 19.46 85.2398 18.46V11.98H87.4998V18.12C87.4998 19.1067 87.7465 19.8667 88.2398 20.4C88.7332 20.92 89.4065 21.18 90.2598 21.18C91.1132 21.18 91.7865 20.92 92.2798 20.4C92.7865 19.8667 93.0398 19.1067 93.0398 18.12V11.98H95.3198ZM99.4881 10.52C99.0748 10.52 98.7281 10.38 98.4481 10.1C98.1681 9.82 98.0281 9.47333 98.0281 9.06C98.0281 8.64667 98.1681 8.3 98.4481 8.02C98.7281 7.74 99.0748 7.6 99.4881 7.6C99.8881 7.6 100.228 7.74 100.508 8.02C100.788 8.3 100.928 8.64667 100.928 9.06C100.928 9.47333 100.788 9.82 100.508 10.1C100.228 10.38 99.8881 10.52 99.4881 10.52ZM100.608 11.98V23H98.3281V11.98H100.608ZM106.262 13.84V19.94C106.262 20.3533 106.355 20.6533 106.542 20.84C106.742 21.0133 107.075 21.1 107.542 21.1H108.942V23H107.142C106.115 23 105.328 22.76 104.782 22.28C104.235 21.8 103.962 21.02 103.962 19.94V13.84H102.662V11.98H103.962V9.24H106.262V11.98H108.942V13.84H106.262Z" fill="#90A0B7"/>
</svg>
