<svg width="16" height="16" viewBox="0 0 16 16" fill="none" xmlns="http://www.w3.org/2000/svg">
<path d="M0.03125 9.76626V12.9364C0.03125 13.163 0.185625 13.361 0.405656 13.4151C5.3795 14.6372 10.3533 12.0545 15.3272 13.164C15.6344 13.2326 15.9256 12.9974 15.9256 12.6827V9.76626C10.6275 8.25613 5.32937 11.2764 0.03125 9.76626Z" fill="#FF473E"/>
<path d="M0.03125 6.2167V9.76626C5.32937 11.2764 10.6275 8.25613 15.9256 9.76626V6.2167C10.6275 4.70657 5.32937 7.72682 0.03125 6.2167Z" fill="#0B67B2"/>
<path d="M0.03125 3.16231V6.21672C5.32937 7.72685 10.6275 4.7066 15.9256 6.21672V2.9086C15.9256 2.682 15.7712 2.48397 15.5512 2.42991C10.5773 1.20785 5.6035 3.7905 0.629656 2.68097C0.322469 2.61247 0.03125 2.84756 0.03125 3.16231Z" fill="#E8E8E8"/>
</svg>
