<svg width="214" height="60" viewBox="0 0 214 60" fill="none" xmlns="http://www.w3.org/2000/svg">
<path d="M78.4407 23.9483C77.4704 23.0163 76.1715 22.5099 74.8298 22.5404C73.488 22.5709 72.2133 23.1359 71.2859 24.1111L48.8382 47.719L35.4252 35.9427C34.4091 35.0917 33.1021 34.6743 31.7838 34.7797C30.4655 34.8852 29.2406 35.5052 28.3713 36.5071C27.502 37.5089 27.0574 38.813 27.1326 40.1402C27.2077 41.4674 27.7968 42.7123 28.7736 43.6085L31.573 46.0649C27.9327 46.7756 24.1628 46.3391 20.7786 44.815C17.3943 43.291 14.5608 40.7537 12.6651 37.55C10.7694 34.3462 9.90402 30.6323 10.1872 26.9155C10.4705 23.1988 11.8884 19.6606 14.2474 16.7845C16.6064 13.9083 19.7913 11.8345 23.367 10.8463C26.9427 9.8581 30.7347 10.0038 34.2249 11.2635C37.7151 12.5232 40.7332 14.8354 42.8669 17.8842C45.0005 20.9329 46.1457 24.5696 46.1458 28.2972C46.151 30.6784 45.6861 33.037 44.7779 35.2363C44.5103 35.8554 44.3681 36.5218 44.3593 37.1968C44.3506 37.8717 44.4756 38.5417 44.727 39.1676C44.9784 39.7935 45.3512 40.3628 45.8237 40.8425C46.2962 41.3221 46.8589 41.7024 47.4791 41.9613C48.0993 42.2201 48.7645 42.3523 49.436 42.3502C50.1075 42.348 50.7719 42.2116 51.3904 41.9488C52.009 41.6859 52.5693 41.302 53.0387 40.8194C53.5082 40.3367 53.8774 39.765 54.1248 39.1375C56.6491 33.0301 56.9645 26.2268 55.0164 19.9099C53.0682 13.593 48.9796 8.16201 43.4612 4.56092C37.9428 0.959828 31.3435 -0.583686 24.8104 0.198665C18.2773 0.981016 12.2234 4.03977 7.70113 8.84326C3.17881 13.6467 0.473944 19.8913 0.0566766 26.4914C-0.360591 33.0916 1.53612 39.63 5.41714 44.9703C9.29816 50.3106 14.9181 54.1151 21.3001 55.7224C27.6821 57.3298 34.4227 56.6384 40.3502 53.7685L46.1274 58.8493C47.9912 60.4884 50.8084 60.3619 52.5194 58.5624L78.6026 31.1286C79.527 30.1542 80.0291 28.8509 79.9987 27.5048C79.9683 26.1587 79.408 24.8797 78.4407 23.9483Z" fill="#109CF1"/>
<path d="M17.3584 21.1838H38.4295C39.0048 21.1838 39.5565 20.9541 39.9632 20.5452C40.37 20.1363 40.5985 19.5817 40.5985 19.0035C40.5985 18.4253 40.37 17.8707 39.9632 17.4618C39.5565 17.0529 39.0048 16.8232 38.4295 16.8232H17.3584C16.7832 16.8232 16.2315 17.0529 15.8247 17.4618C15.418 17.8707 15.1895 18.4253 15.1895 19.0035C15.1895 19.5817 15.418 20.1363 15.8247 20.5452C16.2315 20.9541 16.7832 21.1838 17.3584 21.1838Z" fill="#2ED47A"/>
<path d="M38.4216 22.832H27.004C26.4287 22.832 25.877 23.0617 25.4702 23.4706C25.0635 23.8795 24.835 24.4341 24.835 25.0123C24.835 25.5905 25.0635 26.1451 25.4702 26.554C25.877 26.9628 26.4287 27.1926 27.004 27.1926H38.4216C38.9968 27.1926 39.5485 26.9628 39.9553 26.554C40.362 26.1451 40.5906 25.5905 40.5906 25.0123C40.5906 24.4341 40.362 23.8795 39.9553 23.4706C39.5485 23.0617 38.9968 22.832 38.4216 22.832Z" fill="#2ED47A"/>
<path d="M17.3584 27.1926H20.103C20.6782 27.1926 21.2299 26.9628 21.6367 26.554C22.0434 26.1451 22.2719 25.5905 22.2719 25.0123C22.2719 24.4341 22.0434 23.8795 21.6367 23.4706C21.2299 23.0617 20.6782 22.832 20.103 22.832H17.3584C16.7832 22.832 16.2315 23.0617 15.8247 23.4706C15.418 23.8795 15.1895 24.4341 15.1895 25.0123C15.1895 25.5905 15.418 26.1451 15.8247 26.554C16.2315 26.9628 16.7832 27.1926 17.3584 27.1926Z" fill="#2ED47A"/>
<path d="M38.4223 28.8408H34.7784C34.2031 28.8408 33.6514 29.0705 33.2447 29.4794C32.8379 29.8883 32.6094 30.4429 32.6094 31.0211C32.6094 31.5993 32.8379 32.1539 33.2447 32.5628C33.6514 32.9717 34.2031 33.2014 34.7784 33.2014H38.4223C38.9975 33.2014 39.5492 32.9717 39.956 32.5628C40.3628 32.1539 40.5913 31.5993 40.5913 31.0211C40.5913 30.4429 40.3628 29.8883 39.956 29.4794C39.5492 29.0705 38.9975 28.8408 38.4223 28.8408Z" fill="#2ED47A"/>
<path d="M27.7089 28.8408H17.3584C16.7832 28.8408 16.2315 29.0705 15.8247 29.4794C15.418 29.8883 15.1895 30.4429 15.1895 31.0211C15.1895 31.5993 15.418 32.1539 15.8247 32.5628C16.2315 32.9717 16.7832 33.2014 17.3584 33.2014H27.7089C28.2842 33.2014 28.8358 32.9717 29.2426 32.5628C29.6494 32.1539 29.8779 31.5993 29.8779 31.0211C29.8779 30.4429 29.6494 29.8883 29.2426 29.4794C28.8358 29.0705 28.2842 28.8408 27.7089 28.8408Z" fill="#2ED47A"/>
<path d="M24.2356 34.8787H17.3584C16.7832 34.8787 16.2315 35.1084 15.8247 35.5173C15.418 35.9262 15.1895 36.4807 15.1895 37.059C15.1895 37.6372 15.418 38.1918 15.8247 38.6007C16.2315 39.0095 16.7832 39.2392 17.3584 39.2392H24.2356C24.8109 39.2392 25.3626 39.0095 25.7693 38.6007C26.1761 38.1918 26.4046 37.6372 26.4046 37.059C26.4046 36.4807 26.1761 35.9262 25.7693 35.5173C25.3626 35.1084 24.8109 34.8787 24.2356 34.8787Z" fill="#2ED47A"/>
<path d="M88 18V43.5398H94.4757V36.0531H98.6399C104.304 36.0531 108.203 32.4956 108.203 27.0442C108.203 21.5575 104.498 18 99.0281 18H88ZM94.4757 22.9735H97.3165C100.034 22.9735 101.657 24.4071 101.657 27.0619C101.657 29.7345 100.034 31.1681 97.2812 31.1681H94.4757V22.9735Z" fill="#109CF1"/>
<path d="M111.017 43.5398H117.281V33.3982C117.281 30.708 118.711 29.2212 121.34 29.2212C122.081 29.2212 122.804 29.3628 123.334 29.5752V24.2301C122.91 24.0708 122.381 23.9823 121.745 23.9823C119.487 23.9823 117.934 25.3097 117.228 27.9115H117.105V24.2655H111.017V43.5398Z" fill="#109CF1"/>
<path d="M134.352 44C140.405 44 144.181 40.3363 144.181 33.8938C144.181 27.5752 140.352 23.8053 134.352 23.8053C128.388 23.8053 124.524 27.5929 124.524 33.8938C124.524 40.3186 128.3 44 134.352 44ZM134.352 39.3982C132.2 39.3982 130.876 37.4336 130.876 33.9115C130.876 30.4425 132.235 28.4071 134.352 28.4071C136.487 28.4071 137.846 30.4425 137.846 33.9115C137.846 37.4336 136.487 39.3982 134.352 39.3982Z" fill="#109CF1"/>
<path d="M146.553 36.0177C146.642 41.0442 150.841 43.9823 157.193 43.9823C163.916 43.9823 167.921 40.7257 167.921 35.5929C167.921 31.5752 165.451 29.3628 160.017 28.3186L157.405 27.823C154.635 27.292 153.47 26.5487 153.47 25.2035C153.47 23.6991 154.864 22.6372 157.211 22.6372C159.558 22.6372 161.287 23.7345 161.393 25.5752H167.41C167.339 20.708 163.563 17.5575 157.158 17.5575C151.3 17.5575 147.048 20.7257 147.048 25.646C147.048 29.5398 149.677 32.0354 154.758 32.9911L157.37 33.4867C160.387 34.0708 161.481 34.7965 161.481 36.2124C161.481 37.7699 159.84 38.9027 157.317 38.9027C154.829 38.9027 152.87 37.8407 152.57 36.0177H146.553Z" fill="#109CF1"/>
<path d="M189.598 24.2655H183.352V35.1681C183.352 37.3451 182.116 38.7965 180.175 38.7965C178.217 38.7965 177.035 37.5752 177.035 35.292V24.2655H170.771V36.6549C170.771 41.2035 173.682 43.9115 177.811 43.9115C180.705 43.9115 182.54 42.4248 183.404 39.8938H183.528V43.5398H189.598V24.2655Z" fill="#109CF1"/>
<path d="M196.135 22.0708C197.864 22.0708 199.223 20.6903 199.223 19.0442C199.223 17.3805 197.864 16 196.135 16C194.423 16 193.065 17.3805 193.065 19.0442C193.065 20.6903 194.423 22.0708 196.135 22.0708ZM193.047 43.5398H199.293V24.2655H193.047V43.5398Z" fill="#109CF1"/>
<path d="M204.278 19.9469V24.2655H201.666V28.885H204.278V38.2478C204.278 42.0354 206.254 43.5752 211.247 43.5752C212.465 43.5752 213.382 43.469 213.982 43.3451V38.885C213.612 38.9558 213.241 38.9734 212.747 38.9734C211.247 38.9734 210.542 38.3009 210.542 36.9734V28.885H214V24.2655H210.542V19.9469H204.278Z" fill="#109CF1"/>
</svg>
