<svg width="22" height="21" viewBox="0 0 22 21" fill="none" xmlns="http://www.w3.org/2000/svg">
<path d="M19.0001 5.70715H3.00006C1.89549 5.70715 1.00006 6.61162 1.00006 7.72735V17.8284C1.00006 18.9441 1.89549 19.8486 3.00006 19.8486H19.0001C20.1046 19.8486 21.0001 18.9441 21.0001 17.8284V7.72735C21.0001 6.61162 20.1046 5.70715 19.0001 5.70715Z" stroke="#90A0B7" stroke-width="2" stroke-linecap="round" stroke-linejoin="round"/>
<path d="M15.0003 19.8485V3.68685C15.0003 3.15106 14.7896 2.63721 14.4145 2.25835C14.0394 1.87949 13.5307 1.66665 13.0003 1.66665H9.00031C8.46987 1.66665 7.96116 1.87949 7.58609 2.25835C7.21102 2.63721 7.00031 3.15106 7.00031 3.68685V19.8485" stroke="#90A0B7" stroke-width="2" stroke-linecap="round" stroke-linejoin="round"/>
</svg>
