<svg width="24" height="24" viewBox="0 0 24 24" fill="none" xmlns="http://www.w3.org/2000/svg">
<path d="M14.2821 8H15.4316C15.7365 8 16.0289 7.89464 16.2445 7.70711C16.4601 7.51957 16.5812 7.26522 16.5812 7C16.5812 6.73478 16.4601 6.48043 16.2445 6.29289C16.0289 6.10536 15.7365 6 15.4316 6H14.2821C13.9772 6 13.6848 6.10536 13.4692 6.29289C13.2536 6.48043 13.1325 6.73478 13.1325 7C13.1325 7.26522 13.2536 7.51957 13.4692 7.70711C13.6848 7.89464 13.9772 8 14.2821 8ZM14.2821 12H15.4316C15.7365 12 16.0289 11.8946 16.2445 11.7071C16.4601 11.5196 16.5812 11.2652 16.5812 11C16.5812 10.7348 16.4601 10.4804 16.2445 10.2929C16.0289 10.1054 15.7365 10 15.4316 10H14.2821C13.9772 10 13.6848 10.1054 13.4692 10.2929C13.2536 10.4804 13.1325 10.7348 13.1325 11C13.1325 11.2652 13.2536 11.5196 13.4692 11.7071C13.6848 11.8946 13.9772 12 14.2821 12ZM8.53419 8H9.68376C9.98865 8 10.281 7.89464 10.4966 7.70711C10.7122 7.51957 10.8333 7.26522 10.8333 7C10.8333 6.73478 10.7122 6.48043 10.4966 6.29289C10.281 6.10536 9.98865 6 9.68376 6H8.53419C8.22931 6 7.93691 6.10536 7.72132 6.29289C7.50573 6.48043 7.38462 6.73478 7.38462 7C7.38462 7.26522 7.50573 7.51957 7.72132 7.70711C7.93691 7.89464 8.22931 8 8.53419 8ZM8.53419 12H9.68376C9.98865 12 10.281 11.8946 10.4966 11.7071C10.7122 11.5196 10.8333 11.2652 10.8333 11C10.8333 10.7348 10.7122 10.4804 10.4966 10.2929C10.281 10.1054 9.98865 10 9.68376 10H8.53419C8.22931 10 7.93691 10.1054 7.72132 10.2929C7.50573 10.4804 7.38462 10.7348 7.38462 11C7.38462 11.2652 7.50573 11.5196 7.72132 11.7071C7.93691 11.8946 8.22931 12 8.53419 12ZM22.3291 20H21.1795V3C21.1795 2.73478 21.0584 2.48043 20.8428 2.29289C20.6272 2.10536 20.3348 2 20.0299 2H3.9359C3.63102 2 3.33862 2.10536 3.12303 2.29289C2.90744 2.48043 2.78633 2.73478 2.78633 3V20H1.63676C1.33187 20 1.03947 20.1054 0.823885 20.2929C0.608298 20.4804 0.487183 20.7348 0.487183 21C0.487183 21.2652 0.608298 21.5196 0.823885 21.7071C1.03947 21.8946 1.33187 22 1.63676 22H22.3291C22.6339 22 22.9263 21.8946 23.1419 21.7071C23.3575 21.5196 23.4786 21.2652 23.4786 21C23.4786 20.7348 23.3575 20.4804 23.1419 20.2929C22.9263 20.1054 22.6339 20 22.3291 20ZM13.1325 20H10.8333V16H13.1325V20ZM18.8803 20H15.4316V15C15.4316 14.7348 15.3105 14.4804 15.0949 14.2929C14.8793 14.1054 14.5869 14 14.2821 14H9.68376C9.37888 14 9.08648 14.1054 8.87089 14.2929C8.65531 14.4804 8.53419 14.7348 8.53419 15V20H5.08547V4H18.8803V20Z" fill="#334D6E"/>
</svg>
